<svg width="180" height="59" fill="none" xmlns="http://www.w3.org/2000/svg">
    <path
        d="M57.573 19.45 32.751 2.056a5.596 5.596 0 0 0-3.05-.913 5.596 5.596 0 0 0-3.049.913L2.547 18.942c-.54.337-.99.82-1.306 1.403a4.13 4.13 0 0 0-.492 1.917 4.14 4.14 0 0 0 .45 1.93 3.76 3.76 0 0 0 1.273 1.437l24.162 17.81a5.508 5.508 0 0 0 3.046.98 5.49 5.49 0 0 0 3.068-.898l24.825-17.392a3.717 3.717 0 0 0 1.31-1.41 4.09 4.09 0 0 0 .478-1.928 4.09 4.09 0 0 0-.479-1.928 3.715 3.715 0 0 0-1.309-1.41v-.002Zm-27.3 19.921a1.203 1.203 0 0 1-1.047-.016l-23.1-17.016L29.139 6.201a1.337 1.337 0 0 1 1.122 0l23.673 16.582-23.661 16.588Z"
        fill="#0080D4" />
    <path
        d="m26.652 15.502-13.068 9.155 4.086 3.024 11.469-8.033a1.336 1.336 0 0 1 1.122 0l11.811 8.273 4.2-2.937-13.521-9.482a5.604 5.604 0 0 0-3.05-.911 5.604 5.604 0 0 0-3.049.911Zm30.921 17.389-2.586-1.812-4.2 2.937 3.156 2.214L30.27 52.812a1.229 1.229 0 0 1-1.047 0l-23.1-17.02 3-2.097-4.101-3.038-2.475 1.731c-.54.338-.99.822-1.306 1.404a4.13 4.13 0 0 0-.492 1.917 4.14 4.14 0 0 0 .45 1.93c.301.59.74 1.085 1.273 1.437L26.634 56.88a5.5 5.5 0 0 0 3.047.979 5.483 5.483 0 0 0 3.067-.901L57.57 39.566a3.716 3.716 0 0 0 1.31-1.41c.313-.585.478-1.25.478-1.928a4.09 4.09 0 0 0-.479-1.928 3.715 3.715 0 0 0-1.309-1.41h.003Z"
        fill="#0080D4" />
    <path
        d="M88.077 22.926c-1.382-2.378-3.444-3.566-6.186-3.566a8.237 8.237 0 0 0-3.783.849 8.898 8.898 0 0 0-3.081 2.519c-1.866 2.315-2.799 5.328-2.799 9.041s.978 6.771 2.934 9.174a9.155 9.155 0 0 0 3.158 2.589c1.218.6 2.543.9 3.88.88 2.8 0 4.878-1.447 6.234-4.34l.63 3.66h4.38V10.24h-5.367v12.685Zm0 10.296a6.255 6.255 0 0 1-.38 2.324 5.896 5.896 0 0 1-1.201 1.97 4.846 4.846 0 0 1-1.71 1.275 4.515 4.515 0 0 1-4.054-.202 4.946 4.946 0 0 1-1.595-1.438c-1.024-1.349-1.536-3.13-1.536-5.343s.5-3.977 1.5-5.294a4.79 4.79 0 0 1 1.67-1.468 4.406 4.406 0 0 1 2.101-.51c1.506 0 2.706.488 3.6 1.463 1.017 1.103 1.593 2.593 1.605 4.15v3.072Zm22.578-13.859c-2.888 0-5.088 1.497-6.6 4.49V10.237h-5.319v33.478h5.328V32.742c.06-2.734.594-4.787 1.602-6.16 1.008-1.372 2.22-2.055 3.636-2.048 1.414 0 2.514.447 3.3 1.342.786.894 1.177 2.22 1.173 3.977v13.859h5.325V29.857c0-3.158-.685-5.696-2.055-7.615-1.37-1.92-3.5-2.879-6.39-2.879Zm13.548.587h5.328v23.765h-5.328V19.95Zm2.664-10.98c-1.052 0-1.865.301-2.439.904a3.345 3.345 0 0 0-.667 1.135 3.518 3.518 0 0 0-.191 1.33 3.52 3.52 0 0 0 .191 1.328c.147.424.374.81.667 1.135.573.603 1.386.901 2.439.901 1.053 0 1.83-.298 2.415-.901.299-.32.532-.706.684-1.13a3.49 3.49 0 0 0 .198-1.334 3.483 3.483 0 0 0-.198-1.333 3.275 3.275 0 0 0-.684-1.13c-.582-.604-1.392-.905-2.415-.905Zm21.45 22.008-5.193-2.097c-1.776-.556-2.664-1.402-2.664-2.538 0-.649.324-1.227.972-1.735.645-.502 1.557-.755 2.73-.755s2.079.23 2.7.684c.296.199.544.47.724.793.181.322.288.686.314 1.061h5.013a6.944 6.944 0 0 0-.657-2.806 6.43 6.43 0 0 0-1.716-2.222c-1.52-1.333-3.687-2-6.501-2-2.814 0-5.057.61-6.729 1.832-1.672 1.218-2.508 2.84-2.508 4.862 0 3.026 1.776 5.205 5.328 6.539l4.8 1.85a6.546 6.546 0 0 1 2.124 1.077c.225.2.404.454.521.743.117.288.17.602.154.917 0 .713-.369 1.342-1.104 1.877a4.669 4.669 0 0 1-2.823.804c-2.978 0-4.499-1.122-4.563-3.365h-4.965c.03 2.507.93 4.452 2.7 5.835s4.121 2.076 7.053 2.078c2.92 0 5.268-.748 7.044-2.243 1.716-1.433 2.574-3.124 2.574-5.074a5.329 5.329 0 0 0-.323-2.024 5.004 5.004 0 0 0-1.054-1.71c-.912-.97-2.229-1.765-3.951-2.383Zm14.901 7.466V37.28a3.006 3.006 0 0 1 .207-1.159c.144-.366.359-.695.63-.964.555-.567 1.467-1.034 2.733-1.39l4.74-1.272c2.648-.717 4.572-1.735 5.772-3.053 1.2-1.319 1.795-3.182 1.785-5.59 0-2.404-.918-4.42-2.754-6.048-1.9-1.692-4.324-2.539-7.272-2.539-3.158 0-5.687.732-7.587 2.195-1.996 1.563-3.02 3.808-3.072 6.736h5.916c.3-2.593 1.971-3.89 5.013-3.89 1.384 0 2.467.358 3.249 1.073.373.322.672.731.876 1.197a3.6 3.6 0 0 1 .3 1.49 3.931 3.931 0 0 1-.249 1.468 3.705 3.705 0 0 1-.768 1.24c-.678.732-1.845 1.326-3.501 1.78l-4.299 1.108c-2.442.648-4.219 1.657-5.331 3.025-1.142 1.463-1.714 3.544-1.716 6.243v4.785h21.36v-5.271h-16.032Z"
        fill="#212225" />
    <path
        d="M78.733 52h-.88a1.83 1.83 0 0 0-.743-1.15 1.991 1.991 0 0 0-.607-.299 2.424 2.424 0 0 0-.696-.1c-.44 0-.84.112-1.197.334-.355.223-.638.55-.849.984-.208.433-.312.965-.312 1.595s.104 1.16.312 1.594c.211.433.494.761.85.984.357.222.755.334 1.196.334.241 0 .473-.034.696-.1.222-.066.425-.164.607-.295a1.873 1.873 0 0 0 .742-1.154h.881a2.933 2.933 0 0 1-.362.998 2.726 2.726 0 0 1-1.53 1.215c-.323.106-.667.16-1.034.16a3.05 3.05 0 0 1-1.655-.455c-.483-.303-.863-.734-1.14-1.293-.277-.558-.415-1.221-.415-1.988 0-.767.138-1.43.415-1.989.277-.559.657-.99 1.14-1.293.483-.303 1.035-.454 1.655-.454.367 0 .711.053 1.033.16.325.106.617.262.877.468.26.204.478.453.654.746.175.291.296.624.362.998Zm1.423 5v-7.273h.88v3.239h3.879v-3.239h.88V57h-.88v-3.253h-3.878V57h-.88Zm7.402 0v-7.273h4.39v.782h-3.509v2.457h3.281v.781h-3.28v2.472h3.564V57h-4.446Zm9.954-5.455a1.115 1.115 0 0 0-.518-.838c-.303-.199-.675-.298-1.115-.298a2.12 2.12 0 0 0-.845.156 1.35 1.35 0 0 0-.562.43 1.03 1.03 0 0 0-.198.622c0 .194.046.36.138.5.095.138.215.252.362.345.147.09.301.164.462.223.161.057.309.103.444.139l.738.199c.19.05.4.118.633.206.234.087.458.207.67.358.216.15.394.341.533.576.14.234.21.522.21.863 0 .393-.103.748-.309 1.065-.204.317-.502.57-.895.756-.39.187-.865.28-1.424.28-.52 0-.972-.083-1.353-.251a2.156 2.156 0 0 1-.895-.703 2.007 2.007 0 0 1-.365-1.048h.909c.023.275.116.502.277.682.163.177.369.31.617.398.251.085.521.127.81.127.336 0 .638-.054.906-.163.267-.111.48-.265.635-.462.157-.199.235-.43.235-.696a.856.856 0 0 0-.203-.59 1.486 1.486 0 0 0-.532-.368 5.594 5.594 0 0 0-.714-.249l-.895-.256c-.568-.163-1.018-.396-1.35-.7-.33-.302-.497-.699-.497-1.189 0-.407.11-.762.33-1.065.223-.306.521-.542.895-.71.377-.17.797-.256 1.261-.256.469 0 .886.084 1.25.252.365.166.654.393.867.682.215.289.329.617.34.983h-.852Zm6.377 0a1.112 1.112 0 0 0-.518-.838c-.303-.199-.675-.298-1.115-.298a2.12 2.12 0 0 0-.845.156c-.24.105-.427.248-.562.43-.132.182-.198.39-.198.622a.89.89 0 0 0 .138.5c.095.138.215.252.362.345.147.09.301.164.462.223.161.057.309.103.444.139l.738.199c.19.05.401.118.633.206.234.087.458.207.671.358.215.15.393.341.532.576.14.234.21.522.21.863 0 .393-.103.748-.309 1.065-.204.317-.502.57-.895.756-.391.187-.865.28-1.424.28-.521 0-.972-.083-1.353-.251a2.155 2.155 0 0 1-.895-.703 2.017 2.017 0 0 1-.366-1.048h.91c.023.275.116.502.277.682.163.177.369.31.617.398.251.085.521.127.81.127.336 0 .638-.054.906-.163.267-.111.479-.265.635-.462a1.09 1.09 0 0 0 .235-.696.853.853 0 0 0-.203-.59 1.485 1.485 0 0 0-.532-.368 5.68 5.68 0 0 0-.714-.249l-.895-.256c-.568-.163-1.018-.396-1.35-.7-.331-.302-.497-.699-.497-1.189 0-.407.11-.762.331-1.065.222-.306.52-.542.894-.71.377-.17.797-.256 1.261-.256.469 0 .886.084 1.25.252.365.166.654.393.867.682.215.289.329.617.34.983h-.852Zm4.815-1.037v-.78h5.454v.78h-2.287V57h-.88v-6.492h-2.287Zm12.647 2.856c0 .767-.138 1.43-.415 1.988-.277.559-.657.99-1.14 1.293-.483.303-1.035.454-1.655.454-.62 0-1.172-.151-1.655-.454-.483-.303-.863-.734-1.14-1.293-.277-.558-.415-1.221-.415-1.988 0-.767.138-1.43.415-1.989.277-.559.657-.99 1.14-1.293.483-.303 1.035-.454 1.655-.454.62 0 1.172.151 1.655.454.483.303.863.734 1.14 1.293.277.559.415 1.222.415 1.989Zm-.852 0c0-.63-.106-1.162-.316-1.595-.209-.433-.492-.761-.849-.983a2.201 2.201 0 0 0-1.193-.334 2.22 2.22 0 0 0-1.197.334c-.355.222-.638.55-.849.983-.208.433-.312.965-.312 1.595s.104 1.16.312 1.594c.211.433.494.761.849.984a2.22 2.22 0 0 0 1.197.334c.44 0 .838-.112 1.193-.334.357-.223.64-.55.849-.984.21-.433.316-.965.316-1.594Zm7.106-3.637h.88v4.816c0 .497-.117.94-.351 1.331-.232.389-.56.695-.984.92-.424.223-.921.334-1.491.334-.571 0-1.068-.111-1.492-.334a2.483 2.483 0 0 1-.987-.92 2.558 2.558 0 0 1-.348-1.331v-4.816h.881v4.745c0 .355.078.67.234.948.156.274.379.491.668.65.291.156.639.234 1.044.234.404 0 .752-.078 1.044-.234a1.65 1.65 0 0 0 .667-.65c.156-.277.235-.593.235-.948v-4.745ZM130.244 57v-7.273h2.457c.569 0 1.035.097 1.399.292.365.191.635.455.81.791.175.337.263.719.263 1.147 0 .429-.088.809-.263 1.14a1.852 1.852 0 0 1-.806.782c-.362.187-.825.28-1.388.28h-1.989v-.795h1.96c.388 0 .701-.057.938-.17.239-.114.412-.275.518-.484.109-.21.163-.461.163-.753 0-.29-.054-.545-.163-.763a1.115 1.115 0 0 0-.522-.504c-.239-.121-.555-.181-.948-.181h-1.548V57h-.881Zm3.423-3.267 1.79 3.267h-1.023l-1.761-3.267h.994Zm8.74-4.006V57h-.852l-3.963-5.71h-.071V57h-.881v-7.273h.853l3.977 5.725h.071v-5.725h.866ZM144.468 57h-.923l2.67-7.273h.909L149.795 57h-.924l-2.173-6.122h-.057L144.468 57Zm.341-2.84h3.722v.78h-3.722v-.78Zm6.119-4.433h1.051l2.471 6.037h.086l2.471-6.037h1.051V57h-.824v-5.526h-.071L154.891 57h-.796l-2.273-5.526h-.071V57h-.823v-7.273ZM159.824 57v-7.273h4.389v.782h-3.508v2.457h3.281v.781h-3.281v2.472h3.565V57h-4.446Zm11.744-7.273V57h-.853l-3.963-5.71h-.071V57h-.88v-7.273h.852l3.977 5.725h.071v-5.725h.867Zm1.364.782v-.782h5.455v.782H176.1V57h-.881v-6.492h-2.287Z"
        fill="#000" />
</svg>